<svg width="44" height="36" viewBox="0 0 44 36" fill="none" xmlns="http://www.w3.org/2000/svg">
<path d="M31.7877 21.8565H24.4814V14.4315H20.3063V21.8565H13V6.42385L22.3938 0.956543L31.7877 6.38657V21.8565Z" fill="white"/>
<path d="M1.73335 35H0.53307L4.00466 25.5455H5.18648L8.65807 35H7.45779L4.6325 27.0412H4.55864L1.73335 35ZM2.17654 31.3068H7.0146V32.3224H2.17654V31.3068ZM12.8637 35.1477C12.1989 35.1477 11.6265 34.9908 11.1464 34.6768C10.6662 34.3629 10.2969 33.9305 10.0384 33.3796C9.77987 32.8287 9.65061 32.1993 9.65061 31.4915C9.65061 30.7713 9.78295 30.1358 10.0476 29.5849C10.3154 29.0309 10.6878 28.5985 11.1648 28.2876C11.6449 27.9737 12.2051 27.8168 12.8452 27.8168C13.3438 27.8168 13.7931 27.9091 14.1932 28.0938C14.5933 28.2784 14.9211 28.5369 15.1765 28.8693C15.432 29.2017 15.5905 29.5895 15.652 30.0327H14.5625C14.4794 29.7095 14.2948 29.4233 14.0086 29.174C13.7254 28.9216 13.3438 28.7955 12.8637 28.7955C12.439 28.7955 12.0666 28.9062 11.7465 29.1278C11.4295 29.3464 11.1817 29.6557 11.0032 30.0558C10.8278 30.4528 10.7401 30.919 10.7401 31.4545C10.7401 32.0024 10.8263 32.4794 10.9986 32.8857C11.1741 33.2919 11.4203 33.6074 11.7373 33.832C12.0573 34.0567 12.4328 34.169 12.8637 34.169C13.1468 34.169 13.4038 34.1198 13.6346 34.0213C13.8655 33.9228 14.0609 33.7812 14.2209 33.5966C14.381 33.4119 14.4948 33.1903 14.5625 32.9318H15.652C15.5905 33.3504 15.4381 33.7274 15.195 34.0629C14.9549 34.3952 14.6364 34.6599 14.2394 34.8569C13.8455 35.0508 13.3869 35.1477 12.8637 35.1477ZM20.1254 35.1477C19.4606 35.1477 18.8882 34.9908 18.4081 34.6768C17.928 34.3629 17.5586 33.9305 17.3001 33.3796C17.0416 32.8287 16.9123 32.1993 16.9123 31.4915C16.9123 30.7713 17.0447 30.1358 17.3093 29.5849C17.5771 29.0309 17.9495 28.5985 18.4265 28.2876C18.9066 27.9737 19.4668 27.8168 20.1069 27.8168C20.6055 27.8168 21.0549 27.9091 21.4549 28.0938C21.855 28.2784 22.1828 28.5369 22.4383 28.8693C22.6937 29.2017 22.8522 29.5895 22.9138 30.0327H21.8243C21.7412 29.7095 21.5565 29.4233 21.2703 29.174C20.9871 28.9216 20.6055 28.7955 20.1254 28.7955C19.7007 28.7955 19.3283 28.9062 19.0082 29.1278C18.6912 29.3464 18.4435 29.6557 18.265 30.0558C18.0895 30.4528 18.0018 30.919 18.0018 31.4545C18.0018 32.0024 18.088 32.4794 18.2603 32.8857C18.4358 33.2919 18.682 33.6074 18.999 33.832C19.3191 34.0567 19.6945 34.169 20.1254 34.169C20.4085 34.169 20.6655 34.1198 20.8964 34.0213C21.1272 33.9228 21.3226 33.7812 21.4826 33.5966C21.6427 33.4119 21.7566 33.1903 21.8243 32.9318H22.9138C22.8522 33.3504 22.6999 33.7274 22.4567 34.0629C22.2167 34.3952 21.8981 34.6599 21.5011 34.8569C21.1072 35.0508 20.6486 35.1477 20.1254 35.1477ZM27.4794 35.1477C26.7962 35.1477 26.2068 34.9969 25.7113 34.6953C25.2189 34.3906 24.8388 33.9659 24.5711 33.4212C24.3064 32.8733 24.1741 32.2363 24.1741 31.5099C24.1741 30.7836 24.3064 30.1435 24.5711 29.5895C24.8388 29.0324 25.2112 28.5985 25.6883 28.2876C26.1684 27.9737 26.7285 27.8168 27.3687 27.8168C27.738 27.8168 28.1027 27.8783 28.4628 28.0014C28.8228 28.1245 29.1506 28.3246 29.4461 28.6016C29.7415 28.8755 29.977 29.2386 30.1524 29.6911C30.3278 30.1435 30.4155 30.7005 30.4155 31.3622V31.8239H24.9496V30.8821H29.3076C29.3076 30.482 29.2276 30.125 29.0675 29.8111C28.9106 29.4972 28.6859 29.2494 28.3935 29.0678C28.1042 28.8862 27.7626 28.7955 27.3687 28.7955C26.9347 28.7955 26.5592 28.9032 26.2422 29.1186C25.9283 29.331 25.6867 29.608 25.5174 29.9496C25.3482 30.2912 25.2635 30.6574 25.2635 31.0483V31.6761C25.2635 32.2116 25.3559 32.6656 25.5405 33.038C25.7283 33.4073 25.9883 33.6889 26.3207 33.8828C26.6531 34.0736 27.0393 34.169 27.4794 34.169C27.7657 34.169 28.0242 34.129 28.255 34.049C28.4889 33.9659 28.6905 33.8428 28.8598 33.6797C29.029 33.5135 29.1598 33.3073 29.2522 33.0611L30.3047 33.3565C30.1939 33.7135 30.0077 34.0275 29.7461 34.2983C29.4845 34.5661 29.1614 34.7753 28.7767 34.9261C28.392 35.0739 27.9596 35.1477 27.4794 35.1477ZM36.5416 32.1009V27.9091H37.6311V35H36.5416V33.7997H36.4677C36.3015 34.1598 36.043 34.466 35.6922 34.7184C35.3413 34.9677 34.8981 35.0923 34.3626 35.0923C33.9194 35.0923 33.5255 34.9954 33.1808 34.8015C32.8361 34.6045 32.5653 34.3091 32.3683 33.9151C32.1713 33.5181 32.0728 33.018 32.0728 32.4148V27.9091H33.1623V32.3409C33.1623 32.858 33.307 33.2704 33.5963 33.5781C33.8887 33.8859 34.2611 34.0398 34.7135 34.0398C34.9843 34.0398 35.2598 33.9705 35.5398 33.832C35.823 33.6935 36.0599 33.4812 36.2508 33.195C36.4446 32.9087 36.5416 32.544 36.5416 32.1009ZM39.6266 35V27.9091H40.716V35H39.6266ZM40.1805 26.7273C39.9682 26.7273 39.7851 26.6549 39.6312 26.5103C39.4804 26.3656 39.405 26.1918 39.405 25.9886C39.405 25.7855 39.4804 25.6116 39.6312 25.467C39.7851 25.3223 39.9682 25.25 40.1805 25.25C40.3929 25.25 40.5745 25.3223 40.7253 25.467C40.8792 25.6116 40.9561 25.7855 40.9561 25.9886C40.9561 26.1918 40.8792 26.3656 40.7253 26.5103C40.5745 26.6549 40.3929 26.7273 40.1805 26.7273ZM43.801 25.5455V35H42.7115V25.5455H43.801Z" fill="white"/>
</svg>
