<svg width="68" height="40" viewBox="0 0 68 40" fill="none" xmlns="http://www.w3.org/2000/svg">
<g clip-path="url(#clip0_0_1)">
<path d="M34.618 0.907201L43.4499 20.742L42.4252 21.2005L33.5932 1.36566L34.618 0.907201ZM22.5499 21.187V0.799316H23.6826V21.187H22.5499ZM29.3458 21.187V0.799316H30.4785V21.187H29.3458Z" fill="#777777"/>
</g>
<path d="M0.246937 37V27.5455H3.55234C4.21095 27.5455 4.75416 27.6593 5.18195 27.8871C5.60975 28.1117 5.92828 28.4149 6.13756 28.7965C6.34684 29.1751 6.45148 29.5952 6.45148 30.0568C6.45148 30.4631 6.37916 30.7985 6.23451 31.0632C6.09294 31.3279 5.9052 31.5372 5.6713 31.6911C5.44047 31.8449 5.18965 31.9588 4.91881 32.0327V32.125C5.20811 32.1435 5.49895 32.245 5.79133 32.4297C6.0837 32.6143 6.32838 32.879 6.52535 33.2237C6.72232 33.5684 6.8208 33.9901 6.8208 34.4886C6.8208 34.9626 6.71308 35.3888 6.49765 35.7674C6.28221 36.146 5.94213 36.446 5.47741 36.6676C5.01268 36.8892 4.40792 37 3.66313 37H0.246937ZM1.39182 35.9844H3.66313C4.411 35.9844 4.94189 35.8397 5.25582 35.5504C5.57281 35.258 5.73131 34.9041 5.73131 34.4886C5.73131 34.1686 5.64975 33.8731 5.48664 33.6023C5.32352 33.3284 5.09116 33.1098 4.78955 32.9467C4.48794 32.7805 4.13093 32.6974 3.71853 32.6974H1.39182V35.9844ZM1.39182 31.7003H3.5154C3.8601 31.7003 4.17094 31.6326 4.44793 31.4972C4.728 31.3617 4.94959 31.1709 5.1127 30.9247C5.2789 30.6785 5.36199 30.3892 5.36199 30.0568C5.36199 29.6413 5.21734 29.2889 4.92805 28.9996C4.63875 28.7073 4.18018 28.5611 3.55234 28.5611H1.39182V31.7003ZM8.55429 37V29.9091H9.64378V37H8.55429ZM9.10827 28.7273C8.89591 28.7273 8.71279 28.6549 8.5589 28.5103C8.4081 28.3656 8.3327 28.1918 8.3327 27.9886C8.3327 27.7855 8.4081 27.6116 8.5589 27.467C8.71279 27.3223 8.89591 27.25 9.10827 27.25C9.32062 27.25 9.5022 27.3223 9.65301 27.467C9.80689 27.6116 9.88383 27.7855 9.88383 27.9886C9.88383 28.1918 9.80689 28.3656 9.65301 28.5103C9.5022 28.6549 9.32062 28.7273 9.10827 28.7273ZM11.787 37V27.5455H12.8765V31.0355H12.9688C13.0488 30.9124 13.1596 30.7554 13.3012 30.5646C13.4458 30.3707 13.652 30.1984 13.9198 30.0476C14.1906 29.8937 14.5569 29.8168 15.0185 29.8168C15.6156 29.8168 16.1419 29.966 16.5973 30.2646C17.0528 30.5631 17.4083 30.9863 17.6638 31.5341C17.9192 32.0819 18.0469 32.7282 18.0469 33.473C18.0469 34.224 17.9192 34.8749 17.6638 35.4258C17.4083 35.9736 17.0544 36.3983 16.602 36.6999C16.1495 36.9985 15.6279 37.1477 15.037 37.1477C14.5815 37.1477 14.2168 37.0723 13.9429 36.9215C13.669 36.7676 13.4581 36.5937 13.3104 36.3999C13.1627 36.2029 13.0488 36.0398 12.9688 35.9105H12.8395V37H11.787ZM12.858 33.4545C12.858 33.9901 12.9365 34.4625 13.0934 34.8718C13.2504 35.2781 13.4797 35.5966 13.7813 35.8274C14.0829 36.0552 14.4522 36.169 14.8892 36.169C15.3447 36.169 15.7248 36.049 16.0295 35.8089C16.3373 35.5658 16.5681 35.2396 16.722 34.8303C16.879 34.4179 16.9574 33.9593 16.9574 33.4545C16.9574 32.956 16.8805 32.5066 16.7266 32.1065C16.5758 31.7034 16.3465 31.3848 16.0388 31.1509C15.7341 30.9139 15.3509 30.7955 14.8892 30.7955C14.4461 30.7955 14.0737 30.9078 13.7721 31.1325C13.4705 31.354 13.2427 31.6649 13.0888 32.065C12.9349 32.462 12.858 32.9252 12.858 33.4545ZM20.803 27.5455V37H19.7135V27.5455H20.803ZM22.7984 37V29.9091H23.8879V37H22.7984ZM23.3524 28.7273C23.14 28.7273 22.9569 28.6549 22.803 28.5103C22.6522 28.3656 22.5768 28.1918 22.5768 27.9886C22.5768 27.7855 22.6522 27.6116 22.803 27.467C22.9569 27.3223 23.14 27.25 23.3524 27.25C23.5648 27.25 23.7463 27.3223 23.8972 27.467C24.051 27.6116 24.128 27.7855 24.128 27.9886C24.128 28.1918 24.051 28.3656 23.8972 28.5103C23.7463 28.6549 23.5648 28.7273 23.3524 28.7273ZM28.7641 37.1477C28.1239 37.1477 27.5622 36.9954 27.0791 36.6907C26.5989 36.386 26.2235 35.9598 25.9526 35.4119C25.6849 34.8641 25.551 34.224 25.551 33.4915C25.551 32.7528 25.6849 32.1081 25.9526 31.5572C26.2235 31.0063 26.5989 30.5785 27.0791 30.2738C27.5622 29.9691 28.1239 29.8168 28.7641 29.8168C29.4042 29.8168 29.9644 29.9691 30.4445 30.2738C30.9277 30.5785 31.3031 31.0063 31.5709 31.5572C31.8417 32.1081 31.9771 32.7528 31.9771 33.4915C31.9771 34.224 31.8417 34.8641 31.5709 35.4119C31.3031 35.9598 30.9277 36.386 30.4445 36.6907C29.9644 36.9954 29.4042 37.1477 28.7641 37.1477ZM28.7641 36.169C29.2503 36.169 29.6504 36.0444 29.9644 35.7951C30.2783 35.5458 30.5106 35.218 30.6614 34.8118C30.8122 34.4055 30.8877 33.9654 30.8877 33.4915C30.8877 33.0175 30.8122 32.5759 30.6614 32.1665C30.5106 31.7572 30.2783 31.4264 29.9644 31.174C29.6504 30.9216 29.2503 30.7955 28.7641 30.7955C28.2778 30.7955 27.8777 30.9216 27.5638 31.174C27.2499 31.4264 27.0175 31.7572 26.8667 32.1665C26.7159 32.5759 26.6405 33.0175 26.6405 33.4915C26.6405 33.9654 26.7159 34.4055 26.8667 34.8118C27.0175 35.218 27.2499 35.5458 27.5638 35.7951C27.8777 36.0444 28.2778 36.169 28.7641 36.169ZM36.724 29.9091V30.8324H33.0493V29.9091H36.724ZM34.1203 28.2102H35.2098V34.9688C35.2098 35.2765 35.2545 35.5073 35.3437 35.6612C35.436 35.812 35.553 35.9136 35.6946 35.9659C35.8392 36.0152 35.9916 36.0398 36.1516 36.0398C36.2716 36.0398 36.3701 36.0336 36.447 36.0213C36.524 36.0059 36.5855 35.9936 36.6317 35.9844L36.8533 36.9631C36.7794 36.9908 36.6763 37.0185 36.544 37.0462C36.4117 37.0769 36.2439 37.0923 36.0408 37.0923C35.733 37.0923 35.4314 37.0262 35.136 36.8938C34.8436 36.7615 34.6005 36.5599 34.4066 36.2891C34.2157 36.0182 34.1203 35.6766 34.1203 35.2642V28.2102ZM41.2597 37.1477C40.5765 37.1477 39.9871 36.9969 39.4916 36.6953C38.9992 36.3906 38.6191 35.9659 38.3513 35.4212C38.0867 34.8733 37.9543 34.2363 37.9543 33.5099C37.9543 32.7836 38.0867 32.1435 38.3513 31.5895C38.6191 31.0324 38.9915 30.5985 39.4685 30.2876C39.9486 29.9737 40.5088 29.8168 41.1489 29.8168C41.5182 29.8168 41.8829 29.8783 42.243 30.0014C42.6031 30.1245 42.9309 30.3246 43.2263 30.6016C43.5218 30.8755 43.7572 31.2386 43.9327 31.6911C44.1081 32.1435 44.1958 32.7005 44.1958 33.3622V33.8239H38.7299V32.8821H43.0878C43.0878 32.482 43.0078 32.125 42.8478 31.8111C42.6908 31.4972 42.4662 31.2494 42.1738 31.0678C41.8845 30.8862 41.5429 30.7955 41.1489 30.7955C40.715 30.7955 40.3395 30.9032 40.0225 31.1186C39.7086 31.331 39.467 31.608 39.2977 31.9496C39.1284 32.2912 39.0438 32.6574 39.0438 33.0483V33.6761C39.0438 34.2116 39.1361 34.6656 39.3208 35.038C39.5085 35.4073 39.7686 35.6889 40.101 35.8828C40.4334 36.0736 40.8196 36.169 41.2597 36.169C41.5459 36.169 41.8045 36.129 42.0353 36.049C42.2692 35.9659 42.4708 35.8428 42.64 35.6797C42.8093 35.5135 42.9401 35.3073 43.0324 35.0611L44.085 35.3565C43.9742 35.7135 43.788 36.0275 43.5264 36.2983C43.2648 36.5661 42.9417 36.7753 42.557 36.9261C42.1722 37.0739 41.7398 37.1477 41.2597 37.1477ZM40.6319 28.9489L39.1915 26.8068H40.4657L41.5921 28.9489H40.6319ZM50.6912 39.6591V35.9105H50.5989C50.5188 36.0398 50.405 36.2029 50.2572 36.3999C50.1095 36.5937 49.8987 36.7676 49.6248 36.9215C49.3509 37.0723 48.9862 37.1477 48.5307 37.1477C47.9398 37.1477 47.4181 36.9985 46.9657 36.6999C46.5133 36.3983 46.1593 35.9736 45.9039 35.4258C45.6485 34.8749 45.5207 34.224 45.5207 33.473C45.5207 32.7282 45.6485 32.0819 45.9039 31.5341C46.1593 30.9863 46.5148 30.5631 46.9703 30.2646C47.4258 29.966 47.9521 29.8168 48.5491 29.8168C49.0108 29.8168 49.3755 29.8937 49.6432 30.0476C49.9141 30.1984 50.1203 30.3707 50.2619 30.5646C50.4065 30.7554 50.5188 30.9124 50.5989 31.0355H50.7281V29.9091H51.7807V39.6591H50.6912ZM48.6784 36.169C49.1154 36.169 49.4847 36.0552 49.7864 35.8274C50.088 35.5966 50.3172 35.2781 50.4742 34.8718C50.6312 34.4625 50.7097 33.9901 50.7097 33.4545C50.7097 32.9252 50.6327 32.462 50.4788 32.065C50.3249 31.6649 50.0972 31.354 49.7956 31.1325C49.494 30.9078 49.1216 30.7955 48.6784 30.7955C48.2168 30.7955 47.832 30.9139 47.5243 31.1509C47.2196 31.3848 46.9903 31.7034 46.8364 32.1065C46.6856 32.5066 46.6102 32.956 46.6102 33.4545C46.6102 33.9593 46.6872 34.4179 46.841 34.8303C46.998 35.2396 47.2288 35.5658 47.5335 35.8089C47.8413 36.049 48.2229 36.169 48.6784 36.169ZM58.2437 34.1009V29.9091H59.3332V37H58.2437V35.7997H58.1699C58.0037 36.1598 57.7452 36.466 57.3943 36.7184C57.0435 36.9677 56.6003 37.0923 56.0648 37.0923C55.6216 37.0923 55.2276 36.9954 54.8829 36.8015C54.5382 36.6045 54.2674 36.3091 54.0704 35.9151C53.8735 35.5181 53.775 35.018 53.775 34.4148V29.9091H54.8645V34.3409C54.8645 34.858 55.0091 35.2704 55.2984 35.5781C55.5908 35.8859 55.9632 36.0398 56.4156 36.0398C56.6864 36.0398 56.9619 35.9705 57.242 35.832C57.5251 35.6935 57.7621 35.4812 57.9529 35.195C58.1468 34.9087 58.2437 34.544 58.2437 34.1009ZM64.3017 37.1477C63.6185 37.1477 63.0291 36.9969 62.5336 36.6953C62.0412 36.3906 61.6611 35.9659 61.3933 35.4212C61.1287 34.8733 60.9963 34.2363 60.9963 33.5099C60.9963 32.7836 61.1287 32.1435 61.3933 31.5895C61.6611 31.0324 62.0335 30.5985 62.5105 30.2876C62.9906 29.9737 63.5508 29.8168 64.1909 29.8168C64.5602 29.8168 64.9249 29.8783 65.285 30.0014C65.6451 30.1245 65.9729 30.3246 66.2683 30.6016C66.5638 30.8755 66.7992 31.2386 66.9747 31.6911C67.1501 32.1435 67.2378 32.7005 67.2378 33.3622V33.8239H61.7719V32.8821H66.1298C66.1298 32.482 66.0498 32.125 65.8898 31.8111C65.7328 31.4972 65.5082 31.2494 65.2158 31.0678C64.9265 30.8862 64.5849 30.7955 64.1909 30.7955C63.757 30.7955 63.3815 30.9032 63.0645 31.1186C62.7506 31.331 62.509 31.608 62.3397 31.9496C62.1704 32.2912 62.0858 32.6574 62.0858 33.0483V33.6761C62.0858 34.2116 62.1781 34.6656 62.3628 35.038C62.5505 35.4073 62.8106 35.6889 63.143 35.8828C63.4754 36.0736 63.8616 36.169 64.3017 36.169C64.5879 36.169 64.8465 36.129 65.0773 36.049C65.3112 35.9659 65.5128 35.8428 65.682 35.6797C65.8513 35.5135 65.9821 35.3073 66.0744 35.0611L67.127 35.3565C67.0162 35.7135 66.83 36.0275 66.5684 36.2983C66.3068 36.5661 65.9837 36.7753 65.5989 36.9261C65.2142 37.0739 64.7818 37.1477 64.3017 37.1477Z" fill="white"/>
<defs>
<clipPath id="clip0_0_1">
<rect width="22" height="22" fill="white" transform="translate(22)"/>
</clipPath>
</defs>
</svg>
