<svg width="29" height="48" viewBox="0 0 29 48" fill="none" xmlns="http://www.w3.org/2000/svg">
<path fill-rule="evenodd" clip-rule="evenodd" d="M13.7025 33.6641V48.1636C13.7025 49.6086 14.5357 50.3643 15.0523 49.388L19.8857 40.2542C20.234 39.5957 20.234 38.4637 19.8857 37.8053L15.7002 29.8959L19.8857 21.9865C20.234 21.3281 20.234 20.1961 19.8857 19.5376L15.0523 10.4038C14.5357 9.42749 13.7025 10.1832 13.7025 11.6282V26.1277L9.77597 18.7073C9.44802 18.0878 8.93845 18.1332 8.63785 18.8095C8.33719 19.4857 8.35936 20.5358 8.68731 21.1562L13.3122 29.8959L8.68731 38.6357C8.35936 39.256 8.33719 40.3061 8.63785 40.9824C8.93845 41.6586 9.44802 41.7041 9.77597 41.0845L13.7025 33.6641ZM15.3136 26.1212L18.1492 20.7621L15.3136 15.4037V26.1212ZM18.1492 39.0297L15.3136 44.3889V33.6714L18.1492 39.0297Z" fill="#F3F637"/>
</svg>
