<svg width="27" height="28" viewBox="0 0 27 28" fill="none" xmlns="http://www.w3.org/2000/svg">
<path d="M7.71428 16C8.77938 16 9.64285 15.1045 9.64285 14C9.64285 12.8955 8.77938 12 7.71428 12C6.64917 12 5.78571 12.8955 5.78571 14C5.78571 15.1045 6.64917 16 7.71428 16Z" fill="#ABA4A3"/>
<path d="M13.5 16C14.5651 16 15.4286 15.1045 15.4286 14C15.4286 12.8955 14.5651 12 13.5 12C12.4349 12 11.5714 12.8955 11.5714 14C11.5714 15.1045 12.4349 16 13.5 16Z" fill="#ABA4A3"/>
<path d="M21.2143 14C21.2143 15.1045 20.3508 16 19.2857 16C18.2206 16 17.3571 15.1045 17.3571 14C17.3571 12.8955 18.2206 12 19.2857 12C20.3508 12 21.2143 12.8955 21.2143 14Z" fill="#ABA4A3"/>
</svg>
