<svg width="65" height="36" viewBox="0 0 65 36" fill="none" xmlns="http://www.w3.org/2000/svg">
<path d="M41.6959 18.2168L36.7656 13.2662C38.0332 11.8113 38.7278 9.98069 38.7278 8.07499C38.7278 3.62251 34.9757 0 30.3639 0C25.7521 0 22 3.62251 22 8.07499C22 12.5275 25.7521 16.15 30.3639 16.15C32.0952 16.15 33.7451 15.6458 35.1557 14.6888L40.1235 19.677C40.3311 19.8852 40.6104 20 40.9097 20C41.193 20 41.4617 19.8957 41.6657 19.7061C42.0992 19.3034 42.113 18.6357 41.6959 18.2168ZM30.3639 2.10652C33.7727 2.10652 36.5459 4.78391 36.5459 8.07499C36.5459 11.3661 33.7727 14.0435 30.3639 14.0435C26.9551 14.0435 24.1819 11.3661 24.1819 8.07499C24.1819 4.78391 26.9551 2.10652 30.3639 2.10652Z" fill="#777777"/>
<path d="M0.422718 35V25.5455H3.61732C4.35596 25.5455 4.96225 25.6716 5.43621 25.924C5.91017 26.1733 6.26102 26.5165 6.48877 26.9535C6.71652 27.3905 6.83039 27.8875 6.83039 28.4446C6.83039 29.0017 6.71652 29.4956 6.48877 29.9265C6.26102 30.3574 5.91171 30.6959 5.44083 30.9421C4.96995 31.1853 4.36827 31.3068 3.63579 31.3068H1.05056V30.2727H3.59885C4.10359 30.2727 4.50984 30.1989 4.8176 30.0511C5.12845 29.9034 5.35312 29.6941 5.49161 29.4233C5.63318 29.1494 5.70397 28.8232 5.70397 28.4446C5.70397 28.0661 5.63318 27.7352 5.49161 27.4521C5.35004 27.1689 5.12383 26.9504 4.81299 26.7965C4.50215 26.6396 4.09128 26.5611 3.58039 26.5611H1.5676V35H0.422718ZM4.873 30.7528L7.19971 35H5.87016L3.58039 30.7528H4.873ZM11.4873 35.1477C10.804 35.1477 10.2147 34.9969 9.71915 34.6953C9.22673 34.3906 8.84664 33.9659 8.57888 33.4212C8.3142 32.8733 8.18186 32.2363 8.18186 31.5099C8.18186 30.7836 8.3142 30.1435 8.57888 29.5895C8.84664 29.0324 9.21903 28.5985 9.69607 28.2876C10.1762 27.9737 10.7363 27.8168 11.3765 27.8168C11.7458 27.8168 12.1105 27.8783 12.4706 28.0014C12.8307 28.1245 13.1584 28.3246 13.4539 28.6016C13.7493 28.8755 13.9848 29.2386 14.1602 29.6911C14.3356 30.1435 14.4233 30.7005 14.4233 31.3622V31.8239H8.95743V30.8821H13.3154C13.3154 30.482 13.2354 30.125 13.0753 29.8111C12.9184 29.4972 12.6937 29.2494 12.4013 29.0678C12.112 28.8862 11.7704 28.7955 11.3765 28.7955C10.9425 28.7955 10.567 28.9032 10.25 29.1186C9.93612 29.331 9.69453 29.608 9.52526 29.9496C9.35599 30.2912 9.27135 30.6574 9.27135 31.0483V31.6761C9.27135 32.2116 9.36368 32.6656 9.54834 33.038C9.73608 33.4073 9.99614 33.6889 10.3285 33.8828C10.6609 34.0736 11.0472 34.169 11.4873 34.169C11.7735 34.169 12.032 34.129 12.2628 34.049C12.4967 33.9659 12.6983 33.8428 12.8676 33.6797C13.0369 33.5135 13.1677 33.3073 13.26 33.0611L14.3125 33.3565C14.2017 33.7135 14.0156 34.0275 13.754 34.2983C13.4924 34.5661 13.1692 34.7753 12.7845 34.9261C12.3998 35.0739 11.9674 35.1477 11.4873 35.1477ZM18.9613 35.1477C18.2966 35.1477 17.7241 34.9908 17.244 34.6768C16.7639 34.3629 16.3946 33.9305 16.1361 33.3796C15.8775 32.8287 15.7483 32.1993 15.7483 31.4915C15.7483 30.7713 15.8806 30.1358 16.1453 29.5849C16.413 29.0309 16.7854 28.5985 17.2625 28.2876C17.7426 27.9737 18.3027 27.8168 18.9429 27.8168C19.4415 27.8168 19.8908 27.9091 20.2909 28.0938C20.691 28.2784 21.0187 28.5369 21.2742 28.8693C21.5296 29.2017 21.6881 29.5895 21.7497 30.0327H20.6602C20.5771 29.7095 20.3924 29.4233 20.1062 29.174C19.8231 28.9216 19.4415 28.7955 18.9613 28.7955C18.5366 28.7955 18.1642 28.9062 17.8441 29.1278C17.5272 29.3464 17.2794 29.6557 17.1009 30.0558C16.9255 30.4528 16.8378 30.919 16.8378 31.4545C16.8378 32.0024 16.9239 32.4794 17.0963 32.8857C17.2717 33.2919 17.5179 33.6074 17.8349 33.832C18.155 34.0567 18.5305 34.169 18.9613 34.169C19.2445 34.169 19.5015 34.1198 19.7323 34.0213C19.9631 33.9228 20.1585 33.7812 20.3186 33.5966C20.4786 33.4119 20.5925 33.1903 20.6602 32.9318H21.7497C21.6881 33.3504 21.5358 33.7274 21.2927 34.0629C21.0526 34.3952 20.7341 34.6599 20.337 34.8569C19.9431 35.0508 19.4845 35.1477 18.9613 35.1477ZM24.4319 30.7344V35H23.3424V25.5455H24.4319V29.017H24.5242C24.6904 28.6508 24.9397 28.36 25.2721 28.1445C25.6075 27.926 26.0538 27.8168 26.6108 27.8168C27.094 27.8168 27.5172 27.9137 27.8804 28.1076C28.2435 28.2984 28.5251 28.5923 28.7252 28.9893C28.9283 29.3833 29.0299 29.8849 29.0299 30.4943V35H27.9404V30.5682C27.9404 30.005 27.7942 29.5695 27.5018 29.2617C27.2125 28.9509 26.8109 28.7955 26.2969 28.7955C25.9399 28.7955 25.6198 28.8709 25.3367 29.0217C25.0566 29.1725 24.835 29.3925 24.6719 29.6818C24.5119 29.9711 24.4319 30.322 24.4319 30.7344ZM33.996 35.1477C33.3128 35.1477 32.7234 34.9969 32.2279 34.6953C31.7355 34.3906 31.3554 33.9659 31.0877 33.4212C30.823 32.8733 30.6907 32.2363 30.6907 31.5099C30.6907 30.7836 30.823 30.1435 31.0877 29.5895C31.3554 29.0324 31.7278 28.5985 32.2049 28.2876C32.685 27.9737 33.2451 27.8168 33.8853 27.8168C34.2546 27.8168 34.6193 27.8783 34.9794 28.0014C35.3394 28.1245 35.6672 28.3246 35.9627 28.6016C36.2581 28.8755 36.4936 29.2386 36.669 29.6911C36.8444 30.1435 36.9321 30.7005 36.9321 31.3622V31.8239H31.4662V30.8821H35.8242C35.8242 30.482 35.7442 30.125 35.5841 29.8111C35.4272 29.4972 35.2025 29.2494 34.9101 29.0678C34.6208 28.8862 34.2792 28.7955 33.8853 28.7955C33.4513 28.7955 33.0758 28.9032 32.7588 29.1186C32.4449 29.331 32.2033 29.608 32.034 29.9496C31.8648 30.2912 31.7801 30.6574 31.7801 31.0483V31.6761C31.7801 32.2116 31.8725 32.6656 32.0571 33.038C32.2449 33.4073 32.5049 33.6889 32.8373 33.8828C33.1697 34.0736 33.5559 34.169 33.996 34.169C34.2823 34.169 34.5408 34.129 34.7716 34.049C35.0055 33.9659 35.2071 33.8428 35.3764 33.6797C35.5456 33.5135 35.6764 33.3073 35.7688 33.0611L36.8213 33.3565C36.7105 33.7135 36.5243 34.0275 36.2627 34.2983C36.0011 34.5661 35.678 34.7753 35.2933 34.9261C34.9086 35.0739 34.4762 35.1477 33.996 35.1477ZM38.5894 35V27.9091H39.642V28.9801H39.7159C39.8451 28.6293 40.079 28.3446 40.4176 28.1261C40.7561 27.9076 41.1377 27.7983 41.5625 27.7983C41.6425 27.7983 41.7425 27.7998 41.8625 27.8029C41.9826 27.806 42.0733 27.8106 42.1349 27.8168V28.9247C42.098 28.9155 42.0133 28.9016 41.881 28.8832C41.7517 28.8616 41.6148 28.8509 41.4701 28.8509C41.1254 28.8509 40.8177 28.9232 40.5468 29.0678C40.2791 29.2094 40.0667 29.4064 39.9098 29.6587C39.7559 29.908 39.6789 30.1927 39.6789 30.5128V35H38.5894ZM46.0912 35.1477C45.4264 35.1477 44.854 34.9908 44.3739 34.6768C43.8938 34.3629 43.5245 33.9305 43.2659 33.3796C43.0074 32.8287 42.8782 32.1993 42.8782 31.4915C42.8782 30.7713 43.0105 30.1358 43.2752 29.5849C43.5429 29.0309 43.9153 28.5985 44.3924 28.2876C44.8725 27.9737 45.4326 27.8168 46.0728 27.8168C46.5713 27.8168 47.0207 27.9091 47.4208 28.0938C47.8209 28.2784 48.1486 28.5369 48.4041 28.8693C48.6595 29.2017 48.818 29.5895 48.8796 30.0327H47.7901C47.707 29.7095 47.5223 29.4233 47.2361 29.174C46.953 28.9216 46.5713 28.7955 46.0912 28.7955C45.6665 28.7955 45.2941 28.9062 44.974 29.1278C44.657 29.3464 44.4093 29.6557 44.2308 30.0558C44.0554 30.4528 43.9676 30.919 43.9676 31.4545C43.9676 32.0024 44.0538 32.4794 44.2262 32.8857C44.4016 33.2919 44.6478 33.6074 44.9648 33.832C45.2849 34.0567 45.6603 34.169 46.0912 34.169C46.3744 34.169 46.6313 34.1198 46.8622 34.0213C47.093 33.9228 47.2884 33.7812 47.4485 33.5966C47.6085 33.4119 47.7224 33.1903 47.7901 32.9318H48.8796C48.818 33.3504 48.6657 33.7274 48.4225 34.0629C48.1825 34.3952 47.8639 34.6599 47.4669 34.8569C47.073 35.0508 46.6144 35.1477 46.0912 35.1477ZM51.5617 30.7344V35H50.4723V25.5455H51.5617V29.017H51.6541C51.8203 28.6508 52.0696 28.36 52.4019 28.1445C52.7374 27.926 53.1837 27.8168 53.7407 27.8168C54.2239 27.8168 54.6471 27.9137 55.0103 28.1076C55.3734 28.2984 55.655 28.5923 55.8551 28.9893C56.0582 29.3833 56.1598 29.8849 56.1598 30.4943V35H55.0703V30.5682C55.0703 30.005 54.9241 29.5695 54.6317 29.2617C54.3424 28.9509 53.9408 28.7955 53.4268 28.7955C53.0698 28.7955 52.7497 28.8709 52.4666 29.0217C52.1865 29.1725 51.9649 29.3925 51.8018 29.6818C51.6418 29.9711 51.5617 30.322 51.5617 30.7344ZM61.1259 35.1477C60.4427 35.1477 59.8533 34.9969 59.3578 34.6953C58.8654 34.3906 58.4853 33.9659 58.2176 33.4212C57.9529 32.8733 57.8205 32.2363 57.8205 31.5099C57.8205 30.7836 57.9529 30.1435 58.2176 29.5895C58.4853 29.0324 58.8577 28.5985 59.3347 28.2876C59.8149 27.9737 60.375 27.8168 61.0151 27.8168C61.3845 27.8168 61.7492 27.8783 62.1092 28.0014C62.4693 28.1245 62.7971 28.3246 63.0926 28.6016C63.388 28.8755 63.6234 29.2386 63.7989 29.6911C63.9743 30.1435 64.062 30.7005 64.062 31.3622V31.8239H58.5961V30.8821H62.9541C62.9541 30.482 62.874 30.125 62.714 29.8111C62.557 29.4972 62.3324 29.2494 62.04 29.0678C61.7507 28.8862 61.4091 28.7955 61.0151 28.7955C60.5812 28.7955 60.2057 28.9032 59.8887 29.1186C59.5748 29.331 59.3332 29.608 59.1639 29.9496C58.9947 30.2912 58.91 30.6574 58.91 31.0483V31.6761C58.91 32.2116 59.0024 32.6656 59.187 33.038C59.3747 33.4073 59.6348 33.6889 59.9672 33.8828C60.2996 34.0736 60.6858 34.169 61.1259 34.169C61.4122 34.169 61.6707 34.129 61.9015 34.049C62.1354 33.9659 62.337 33.8428 62.5063 33.6797C62.6755 33.5135 62.8063 33.3073 62.8987 33.0611L63.9512 33.3565C63.8404 33.7135 63.6542 34.0275 63.3926 34.2983C63.131 34.5661 62.8079 34.7753 62.4232 34.9261C62.0385 35.0739 61.606 35.1477 61.1259 35.1477Z" fill="white"/>
</svg>
